<?xml version="1.0" standalone="no"?>
<!DOCTYPE svg PUBLIC "-//W3C//DTD SVG 20010904//EN"
 "http://www.w3.org/TR/2001/REC-SVG-20010904/DTD/svg10.dtd">
<svg version="1.0" xmlns="http://www.w3.org/2000/svg"
 width="658.000000pt" height="439.000000pt" viewBox="0 0 658.000000 439.000000"
 preserveAspectRatio="xMidYMid meet">
<metadata>
Created by potrace 1.10, written by Peter Selinger 2001-2011
</metadata>
<g transform="translate(0.000000,439.000000) scale(0.050000,-0.050000)"
fill="#ffffff" stroke="none">
<path d="M68 8745 c-35 -24 -68 -98 -68 -154 0 -51 27 -68 50 -31 7 11 34 16
60 12 26 -5 51 2 57 16 11 30 964 33 1011 3 17 -10 24 -10 16 2 -9 16 483 22
501 6 12 -10 61 -9 130 3 41 7 75 6 75 -3 0 -8 34 -11 75 -7 79 8 175 11 225
7 35 -2 1155 0 1520 4 138 1 372 1 520 0 149 -1 279 -2 290 -2 458 7 570 11
570 25 0 9 11 9 25 0 20 -12 1118 -32 1285 -23 22 1 292 1 600 0 308 -1 592
-1 630 1 39 1 313 3 610 4 l540 2 1 -61 c1 -33 7 -70 14 -81 23 -37 9 -887
-14 -873 -13 8 -13 2 1 -16 35 -46 45 -136 17 -147 -30 -11 -27 -43 7 -105 13
-24 16 -47 6 -50 -23 -9 -45 -173 -25 -185 21 -13 17 -3254 -4 -3287 -9 -14
-6 -25 6 -25 13 0 18 -39 13 -101 -4 -55 -1 -131 8 -169 9 -39 10 -66 3 -62
-7 5 -14 -79 -15 -186 -1 -172 -6 -200 -45 -239 -38 -38 -50 -39 -47 -2 1 6
-18 12 -42 13 -24 1 -33 -2 -19 -8 41 -15 29 -43 -14 -32 -21 6 -43 25 -48 43
-8 30 -9 30 -11 -1 -2 -37 -120 -42 -147 -6 -9 13 -14 13 -15 -1 0 -22 -1719
-28 -1854 -7 -35 6 -60 5 -56 -2 12 -19 -371 -19 -422 1 -28 10 -51 10 -58 -1
-11 -17 -288 -26 -580 -18 -66 2 -178 3 -250 1 -332 -6 -399 -6 -466 5 -40 6
-76 4 -82 -5 -5 -9 -63 -10 -127 -2 -65 8 -159 7 -210 0 -52 -8 -105 -7 -119
1 -14 9 -32 5 -40 -8 -11 -17 -15 -17 -16 -1 0 14 -26 19 -71 13 -43 -6 -84 1
-104 17 -21 18 -28 19 -18 3 11 -19 -29 -22 -171 -14 -102 6 -237 2 -300 -8
-75 -11 -117 -11 -121 2 -9 26 -130 23 -163 -5 -14 -11 -29 -17 -34 -12 -7 7
-755 38 -808 34 -313 -27 -455 -24 -482 11 -25 32 -27 32 -16 1 11 -32 -7 -34
-218 -30 -127 3 -226 12 -220 22 6 9 -6 8 -27 -2 -20 -11 -93 -18 -162 -17
-72 2 -125 -6 -126 -18 0 -11 -12 -4 -27 15 -27 36 -63 50 -43 16 8 -12 -86
-16 -249 -12 -195 6 -257 2 -246 -16 9 -15 3 -14 -17 2 -21 17 -89 24 -199 21
-93 -2 -203 4 -246 12 l-78 15 12 -86 c23 -174 -463 -157 4495 -157 2808 0
4415 7 4448 20 l51 19 0 2937 c0 2257 -6 2942 -24 2960 -27 27 -8868 36 -8908
9z"/>
<path d="M4335 7668 c-10 -10 -184 -27 -320 -32 -30 -1 -55 -8 -55 -17 0 -29
-66 -39 -96 -14 -25 19 -28 19 -17 0 10 -16 -4 -33 -41 -48 -112 -45 -196 -87
-203 -102 -3 -8 -16 -15 -27 -15 -19 0 -119 -77 -202 -156 -20 -18 -47 -34
-60 -34 -13 0 -24 -13 -25 -30 0 -16 -11 -28 -24 -25 -14 3 -19 -9 -11 -29 7
-18 5 -27 -6 -21 -11 7 -46 -27 -79 -76 -32 -48 -65 -88 -73 -89 -17 0 -116
-216 -116 -254 0 -16 -13 -42 -28 -57 -34 -34 -59 -237 -49 -396 4 -64 -2
-116 -13 -120 -12 -4 -10 -18 5 -37 13 -16 18 -37 10 -46 -8 -9 -4 -10 9 -3
13 8 29 4 37 -8 23 -37 68 46 68 127 8 876 929 1520 1756 1228 861 -305 1210
-1312 718 -2072 -258 -398 -715 -647 -1128 -613 -179 14 -195 3 -113 -78 42
-41 44 -91 4 -91 -12 0 -34 16 -50 35 -16 19 -23 24 -16 10 7 -15 -7 -32 -37
-44 -27 -10 -55 -28 -62 -40 -8 -12 -22 -16 -33 -10 -10 7 -18 5 -16 -5 14
-78 -58 -90 -127 -21 -25 25 -52 43 -60 40 -8 -3 -15 5 -15 18 0 14 -22 18
-60 10 -33 -7 -60 -4 -60 6 0 10 -18 15 -40 11 -22 -4 -41 3 -41 16 -1 13 -10
2 -21 -26 -12 -30 -26 -40 -34 -27 -15 24 -180 24 -217 1 -13 -8 -27 -2 -33
13 -8 20 -184 32 -184 12 0 -2 -29 -6 -65 -9 -35 -3 -60 2 -55 10 6 9 -8 12
-30 6 -26 -7 -40 -1 -40 17 -1 21 -4 21 -17 2 -18 -29 -217 -51 -233 -26 -5
10 -48 12 -95 5 -92 -13 -184 -14 -295 -5 -38 4 -106 0 -150 -8 -101 -19 -115
-19 -252 -4 -96 11 -117 7 -148 -27 -19 -21 -45 -33 -56 -26 -11 7 -14 2 -6
-11 8 -13 6 -23 -5 -23 -49 0 -80 -202 -45 -288 31 -76 143 -175 182 -160 54
21 90 23 111 6 12 -9 56 -7 98 4 43 12 82 14 89 4 23 -33 247 -42 289 -11 12
10 41 14 63 11 173 -27 266 -35 257 -22 -5 9 0 17 12 19 11 1 32 3 46 5 14 2
31 -5 38 -15 19 -27 162 -31 196 -5 23 17 25 16 12 -8 -13 -23 -11 -25 8 -7
16 15 68 19 143 12 70 -6 118 -3 118 9 0 18 51 18 387 -4 148 -9 220 18 244
93 12 39 14 39 54 3 28 -24 36 -26 25 -6 -9 17 8 5 39 -25 31 -30 75 -56 99
-57 23 -1 73 -6 111 -10 40 -5 76 2 86 17 15 20 20 20 28 0 6 -14 19 -20 29
-14 10 6 18 1 18 -11 0 -14 11 -16 32 -4 17 10 77 13 133 8 60 -6 96 -2 89 9
-6 10 6 20 27 22 21 1 43 -6 50 -16 22 -36 223 -23 238 16 12 31 17 31 38 5
30 -38 49 -41 139 -21 43 10 74 9 74 -1 0 -10 14 -18 30 -18 17 0 30 9 30 21
0 21 171 12 280 -15 28 -7 77 -11 110 -9 290 12 495 11 503 -2 5 -8 28 -5 51
7 85 46 153 56 177 26 27 -32 79 -38 79 -9 0 36 82 44 131 12 38 -25 65 -27
133 -12 55 12 93 12 109 -1 13 -11 65 -22 116 -23 50 -2 91 -13 91 -24 0 -12
10 -7 22 9 15 21 24 23 31 6 28 -69 234 211 208 284 -8 22 -13 67 -13 100 2
45 -12 69 -53 95 -30 19 -55 44 -55 55 0 11 -13 20 -30 20 -16 0 -30 8 -30 17
0 10 -24 13 -53 7 -36 -7 -49 -3 -39 13 21 34 -49 5 -101 -42 -41 -36 -46 -37
-108 -5 -51 27 -75 29 -113 12 -65 -30 -173 -29 -154 1 8 13 6 18 -4 13 -10
-6 -66 -5 -124 3 -85 11 -109 8 -123 -17 -14 -25 -26 -26 -70 -6 -29 13 -82
24 -118 24 -36 0 -77 11 -92 25 -21 20 -24 20 -13 0 10 -18 -5 -25 -53 -25
-37 0 -77 -10 -90 -23 -13 -13 -37 -16 -59 -6 -53 23 -58 24 -151 27 -63 2
-77 8 -55 22 17 11 20 20 9 20 -12 0 -41 -18 -64 -40 -34 -31 -54 -36 -91 -21
-32 12 -56 11 -70 -3 -13 -13 -43 -14 -87 -1 -75 21 -236 22 -269 0 -19 -12
-48 -6 -188 41 -24 8 -24 12 5 19 32 7 44 29 38 69 -2 8 15 24 37 36 30 16 40
15 40 -2 0 -13 16 -5 36 18 20 23 49 44 64 48 31 7 63 28 121 81 22 19 48 35
60 35 11 0 25 13 32 30 6 16 18 26 25 21 8 -5 31 18 50 51 22 37 47 57 64 50
15 -6 27 -4 25 4 -6 39 5 65 23 54 11 -7 20 2 20 20 0 18 29 62 64 97 35 34
65 81 67 103 2 22 14 38 26 35 13 -3 22 2 21 10 -7 40 4 66 22 55 11 -7 20 6
20 29 0 23 18 95 39 159 55 163 96 371 89 458 -3 41 -8 139 -11 219 -4 80 -14
145 -23 145 -9 0 -15 16 -13 35 2 19 1 40 -1 45 -3 6 -7 33 -8 60 -2 28 -20
74 -39 103 -19 29 -37 72 -38 95 -2 23 -17 42 -33 42 -16 0 -23 6 -15 13 17
18 -79 182 -150 255 -30 32 -51 66 -45 75 6 9 -12 26 -40 36 -28 11 -62 38
-76 60 -14 23 -37 41 -51 41 -14 0 -25 7 -25 17 0 9 -22 28 -49 43 -27 14 -44
36 -37 48 7 12 5 15 -4 7 -10 -9 -39 5 -65 30 -27 25 -52 43 -57 40 -20 -12
-49 -3 -39 13 6 9 -29 27 -78 40 -48 12 -100 33 -114 48 -15 14 -54 28 -87 30
-86 7 -117 13 -142 29 -12 8 -42 10 -65 6 -30 -6 -43 1 -43 25 -1 23 -5 26
-16 10 -11 -18 -94 -23 -94 -6 0 10 -86 17 -95 8z m-2479 -3308 c-9 -57 -5
-60 59 -60 65 0 68 2 55 60 -10 47 -6 60 18 60 26 0 32 -26 32 -140 0 -113 -6
-140 -31 -140 -21 0 -29 16 -25 55 5 47 -2 56 -49 61 -49 6 -55 0 -55 -55 0
-41 -10 -61 -30 -61 -24 0 -30 29 -30 140 0 115 6 140 32 140 25 0 30 -14 24
-60z m533 16 c74 -106 9 -236 -118 -236 -78 0 -131 56 -131 140 0 131 176 199
249 96z m311 14 c31 -37 9 -67 -24 -34 -32 32 -96 30 -96 -2 0 -15 29 -40 65
-55 70 -31 99 -111 52 -141 -70 -45 -202 5 -167 62 10 16 26 12 51 -11 38 -34
99 -28 99 11 0 12 -16 26 -35 32 -120 39 -156 89 -101 144 34 34 126 30 156
-6z m313 -1 c17 -43 -6 -59 -42 -30 -31 26 -91 16 -91 -15 0 -10 36 -32 80
-49 83 -33 104 -83 56 -131 -34 -34 -146 -30 -176 6 -36 44 -9 61 48 31 48
-25 92 -16 92 20 0 10 -30 31 -68 47 -84 35 -100 60 -72 112 27 50 155 57 173
9z m307 11 c0 -11 -27 -20 -60 -20 -47 0 -60 -9 -60 -40 0 -29 13 -40 50 -40
28 0 50 -9 50 -20 0 -11 -22 -20 -50 -20 -37 0 -50 -11 -50 -41 0 -32 11 -39
53 -35 29 3 57 -5 62 -19 6 -17 -17 -25 -73 -25 l-82 0 0 140 0 140 80 0 c44
0 80 -9 80 -20z m160 -120 c0 -111 -6 -140 -30 -140 -24 0 -30 29 -30 140 0
111 6 140 30 140 24 0 30 -29 30 -140z m254 34 l65 -104 0 105 c1 58 10 105
21 105 11 0 20 -60 20 -140 0 -173 -26 -180 -115 -35 l-64 105 0 -105 c-1 -77
-9 -105 -29 -105 -23 0 -28 31 -25 140 4 175 36 183 127 34z m583 38 c3 -32
-5 -64 -18 -73 -18 -11 -16 -26 8 -61 40 -57 42 -78 5 -78 -15 0 -38 27 -52
60 -14 33 -33 60 -42 60 -10 0 -18 -27 -18 -60 0 -40 -10 -60 -30 -60 -24 0
-30 29 -30 141 l0 141 85 -6 c77 -5 86 -11 92 -64z m305 -42 c62 -163 63 -170
29 -170 -17 0 -31 14 -31 30 0 20 -20 30 -61 30 -35 0 -65 -12 -72 -30 -6 -16
-25 -30 -41 -30 -21 0 -26 11 -16 35 8 19 32 83 55 141 51 131 86 129 137 -6z
m337 82 c31 -38 -10 -64 -50 -31 -30 24 -89 13 -89 -17 0 -10 36 -32 80 -49
83 -33 104 -83 56 -131 -33 -33 -120 -30 -167 4 -49 36 -21 69 32 36 53 -33
99 -30 99 6 0 17 -25 40 -55 51 -77 29 -108 75 -84 122 25 45 143 51 178 9z
m181 -32 c0 -53 7 -60 60 -60 53 0 60 7 60 60 0 40 10 60 30 60 24 0 30 -29
30 -140 0 -111 -6 -140 -30 -140 -20 0 -30 20 -30 60 0 53 -7 60 -60 60 -53 0
-60 -7 -60 -60 0 -33 -9 -60 -20 -60 -11 0 -20 60 -20 140 0 80 9 140 20 140
11 0 20 -27 20 -60z m360 -80 c0 -111 -6 -140 -30 -140 -24 0 -30 29 -30 140
0 111 6 140 30 140 24 0 30 -29 30 -140z m329 96 c74 -107 9 -236 -119 -236
l-70 0 0 140 0 140 79 0 c59 0 87 -11 110 -44z m231 26 c0 -9 15 -52 32 -95
l33 -77 35 90 c36 92 100 134 100 66 0 -20 6 -84 13 -144 11 -87 8 -106 -15
-98 -16 5 -32 47 -38 98 l-11 88 -31 -89 c-40 -115 -65 -121 -98 -21 -38 114
-60 118 -60 11 0 -70 -7 -91 -32 -91 -24 0 -29 12 -21 45 7 25 13 88 13 140 0
82 6 95 40 95 22 0 40 -8 40 -18z m399 -37 l25 -55 28 55 c16 30 43 55 60 55
26 0 24 -11 -10 -67 -23 -37 -42 -100 -42 -140 0 -52 -9 -73 -30 -73 -20 0
-30 21 -30 65 0 36 -18 92 -40 125 -47 71 -50 90 -13 90 15 0 38 -25 52 -55z
m417 -77 c46 -132 44 -189 -5 -123 -31 43 -122 46 -138 5 -7 -16 -25 -30 -40
-30 -22 0 -17 30 24 140 67 180 99 181 159 8z m315 57 c1 -35 8 -70 15 -78 59
-59 -2 -127 -114 -127 l-64 0 -2 141 -2 141 83 -6 c79 -6 83 -9 84 -71z"/>
<path d="M2208 4330 c-34 -53 0 -150 54 -150 53 0 98 45 98 97 0 106 -95 140
-152 53z"/>
<path d="M4200 4341 c0 -28 13 -41 41 -41 52 0 46 66 -6 76 -24 5 -35 -6 -35
-35z"/>
<path d="M4532 4313 c-16 -65 -9 -80 35 -70 25 6 26 16 5 67 l-25 60 -15 -57z"/>
<path d="M5680 4289 c0 -98 36 -134 90 -89 63 53 25 180 -54 180 -29 0 -36
-17 -36 -91z"/>
<path d="M6780 4322 c0 -10 -5 -33 -12 -50 -9 -23 0 -32 32 -32 32 0 41 9 32
32 -7 17 -12 40 -12 50 0 10 -9 18 -20 18 -11 0 -20 -8 -20 -18z"/>
<path d="M7080 4340 c0 -30 10 -41 35 -36 19 4 35 20 35 36 0 16 -16 32 -35
36 -25 5 -35 -6 -35 -36z"/>
<path d="M7080 4220 c0 -33 10 -41 45 -36 25 3 45 20 45 36 0 17 -20 33 -45
36 -35 5 -45 -3 -45 -36z"/>
<path d="M4023 7360 c-534 -144 -943 -652 -943 -1173 0 -114 -25 -182 -45
-123 -4 14 -13 5 -20 -20 -8 -33 -3 -44 24 -44 38 0 149 78 134 94 -6 5 8 51
29 101 21 50 35 95 30 99 -5 5 5 42 22 82 16 39 33 89 37 110 10 53 50 96 74
81 12 -7 15 -4 8 8 -19 31 36 149 103 221 32 34 54 67 48 73 -6 6 3 11 19 11
17 0 42 23 57 50 15 28 44 50 65 50 22 0 43 17 49 40 6 22 27 40 47 40 20 0
42 9 49 20 7 12 20 16 28 11 9 -5 33 6 54 26 65 60 518 133 518 83 0 -1 45 -5
100 -8 134 -8 230 -31 230 -55 0 -11 8 -14 19 -8 10 6 24 2 31 -9 7 -11 21
-16 31 -9 10 6 13 -5 5 -25 -7 -20 -25 -43 -39 -52 -15 -9 -27 -28 -27 -43 0
-14 -13 -37 -28 -50 -31 -25 -83 -210 -75 -266 3 -19 -4 -35 -16 -35 -12 0
-22 -29 -21 -65 1 -57 -7 -123 -21 -185 -3 -11 -11 21 -19 70 l-14 90 -3 -92
c-4 -127 -70 -193 -106 -106 -33 83 -34 92 -11 148 20 48 23 65 31 186 1 31
11 52 20 46 10 -6 17 14 17 44 -1 30 1 90 4 134 7 124 -35 227 -81 198 -10 -6
-16 1 -12 16 3 14 -13 26 -35 27 -22 0 -50 7 -62 14 -12 8 -34 -8 -48 -36 -15
-27 -35 -49 -45 -49 -9 0 -11 11 -2 25 10 17 4 16 -19 -2 -18 -15 -29 -36 -23
-45 7 -10 -3 -24 -20 -30 -17 -7 -31 -21 -31 -31 0 -11 11 -13 25 -4 19 11 19
7 -1 -17 -41 -51 -69 -156 -92 -343 -3 -31 -19 -65 -34 -75 -17 -11 -19 -18
-5 -18 13 0 19 -17 13 -40 -6 -22 -21 -34 -33 -27 -17 10 -17 7 0 -12 24 -27
13 -101 -15 -101 -10 0 -18 -12 -18 -28 0 -28 -114 -92 -163 -92 -28 0 -76
-42 -164 -143 -68 -76 -50 -157 57 -255 47 -44 80 -85 73 -93 -7 -7 9 -10 37
-6 38 5 51 -3 54 -33 21 -225 89 -390 159 -390 15 0 27 -9 27 -20 0 -39 51
-18 127 50 43 39 85 70 95 70 10 0 18 16 18 34 0 27 8 24 35 -15 19 -27 33
-56 30 -64 -3 -8 5 -15 16 -15 12 0 16 -9 9 -20 -7 -11 -2 -20 10 -20 12 0 17
-9 10 -20 -23 -37 11 -136 71 -212 91 -113 75 -160 -59 -182 -26 -5 -80 -25
-120 -45 -50 -25 -86 -31 -117 -19 -25 9 -45 13 -45 8 0 -4 -23 14 -50 42 -28
28 -77 60 -110 71 -34 12 -60 35 -60 54 -1 29 -3 29 -20 3 -18 -27 -22 -27
-40 0 -11 17 -20 24 -20 16 -1 -73 -333 169 -423 309 -71 110 -227 255 -275
255 -18 0 -24 -7 -12 -15 11 -8 23 -33 27 -55 23 -134 399 -536 507 -543 65
-4 367 -143 361 -166 -2 -11 25 -25 60 -31 95 -17 393 -22 383 -7 -5 8 39 14
97 13 94 0 248 46 275 82 6 7 64 49 130 91 146 96 314 234 300 248 -6 5 -30
-8 -55 -30 -117 -102 -112 -80 10 43 893 900 14 2458 -1202 2130z m377 -329
c0 -4 -9 -32 -20 -61 -23 -60 -131 -590 -151 -740 l-13 -100 250 6 249 6 65
344 c67 353 102 474 139 474 28 0 31 22 -58 -420 -83 -415 -83 -419 23 -420
29 0 60 -10 67 -22 10 -16 -14 -20 -79 -15 -81 6 -95 2 -101 -33 -5 -22 -33
-166 -63 -320 -31 -162 -54 -343 -53 -430 1 -141 -12 -179 -63 -180 -9 0 -12
43 -5 95 23 173 -67 311 -317 484 l-120 83 -15 -66 c-8 -36 -16 -123 -17 -192
-2 -85 -10 -123 -25 -118 -16 5 -22 73 -19 207 l4 200 -164 78 c-233 112 -209
169 89 215 115 18 139 28 146 63 5 22 37 199 72 391 60 331 77 396 124 455 19
24 55 35 55 16z m825 -287 c38 -53 80 -129 94 -170 13 -41 35 -75 48 -76 16
-1 15 -4 -2 -11 -14 -6 -25 -19 -25 -30 0 -11 10 -13 23 -5 16 10 20 1 12 -29
-6 -24 -4 -43 6 -43 20 0 5 -381 -19 -470 -8 -33 -12 -90 -7 -127 5 -46 1 -63
-15 -53 -13 8 -21 2 -19 -13 8 -61 -2 -81 -34 -69 -28 11 -29 8 -6 -19 16 -20
19 -37 7 -46 -28 -20 -98 -131 -92 -148 2 -8 -9 -15 -26 -15 -16 0 -30 -13
-30 -30 0 -16 -9 -30 -20 -30 -11 0 -18 -8 -15 -17 6 -20 -254 -283 -279 -283
-9 0 -4 9 12 18 22 14 19 22 -16 41 -38 21 -40 26 -12 53 34 35 41 108 10 108
-11 0 -20 14 -20 30 0 17 8 30 19 30 10 0 14 23 9 50 -5 32 0 50 17 50 17 1
16 7 -5 22 -19 14 -22 24 -8 30 13 5 19 40 15 79 -5 38 1 69 12 69 11 0 14 15
7 33 -7 19 -4 28 6 22 10 -6 19 13 20 42 5 124 10 145 46 181 21 21 33 44 27
50 -6 7 1 12 17 12 53 0 81 116 45 186 -34 65 -50 210 -25 225 9 6 12 28 8 49
-4 22 -1 40 6 40 8 0 16 37 19 81 2 45 18 95 35 111 38 39 38 50 0 35 -37 -14
-20 41 28 95 46 50 51 48 127 -58z"/>
<path d="M4296 6085 c-102 -8 -105 -11 -127 -167 l-13 -93 121 -73 c114 -69
303 -254 303 -295 0 -11 9 -14 20 -7 11 7 20 37 20 66 0 30 18 162 40 294 22
132 40 251 40 265 0 25 -167 29 -404 10z"/>
<path d="M3940 6036 c-138 -30 -137 -48 11 -115 157 -71 145 -74 162 46 14
106 7 108 -173 69z"/>
<path d="M5556 5605 c-30 -73 -52 -136 -48 -139 10 -11 115 234 108 253 -3 10
-30 -41 -60 -114z"/>
<path d="M3078 5555 c-17 -37 -11 -138 11 -185 15 -33 31 -73 34 -89 4 -16 31
-53 61 -83 29 -30 49 -59 43 -64 -13 -14 77 -64 103 -58 11 3 2 -10 -20 -28
-32 -27 -33 -31 -5 -21 23 7 60 -12 110 -58 41 -38 87 -65 101 -59 14 5 21 1
15 -9 -13 -21 60 -49 86 -33 10 6 38 -7 63 -28 26 -22 54 -40 64 -40 10 0 12
-11 4 -25 -11 -20 -8 -20 13 0 15 14 36 25 48 25 12 0 10 -8 -4 -17 -19 -11
-12 -23 25 -43 27 -15 50 -39 50 -53 0 -15 2 -27 5 -27 3 0 53 13 112 29 110
29 163 24 163 -16 0 -13 8 -11 18 5 31 49 1 82 -75 82 -113 1 -275 65 -253
100 6 9 -10 23 -35 31 -25 8 -71 33 -104 56 -32 22 -52 30 -43 17 18 -30 -11
-31 -74 -2 -121 55 -500 516 -479 583 4 13 -31 23 -37 10z"/>
<path d="M5331 5225 c-59 -69 -72 -91 -33 -55 60 54 154 170 138 170 -3 0 -50
-52 -105 -115z"/>
</g>
</svg>
